<svg width="20" height="20" viewBox="0 0 20 20" fill="none" xmlns="http://www.w3.org/2000/svg">
<path d="M17 4.5C17 5.3284 16.3284 6 15.5 6C14.6716 6 14 5.3284 14 4.5C14 3.67157 14.6716 3 15.5 3C16.3284 3 17 3.67157 17 4.5Z" fill="white"/>
<path fill-rule="evenodd" clip-rule="evenodd" d="M10 15C12.7614 15 15 12.7614 15 10C15 7.2386 12.7614 5 10 5C7.2386 5 5 7.2386 5 10C5 12.7614 7.2386 15 10 15ZM10 13C11.6569 13 13 11.6569 13 10C13 8.3431 11.6569 7 10 7C8.3431 7 7 8.3431 7 10C7 11.6569 8.3431 13 10 13Z" fill="white"/>
<path fill-rule="evenodd" clip-rule="evenodd" d="M0 9.6C0 6.2397 2.38419e-07 4.5595 0.65396 3.27606C1.2292 2.14708 2.14708 1.2292 3.27606 0.65396C4.5595 2.38419e-07 6.2397 0 9.6 0H10.4C13.7603 0 15.4405 2.38419e-07 16.7239 0.65396C17.8529 1.2292 18.7708 2.14708 19.346 3.27606C20 4.5595 20 6.2397 20 9.6V10.4C20 13.7603 20 15.4405 19.346 16.7239C18.7708 17.8529 17.8529 18.7708 16.7239 19.346C15.4405 20 13.7603 20 10.4 20H9.6C6.2397 20 4.5595 20 3.27606 19.346C2.14708 18.7708 1.2292 17.8529 0.65396 16.7239C2.38419e-07 15.4405 0 13.7603 0 10.4V9.6ZM9.6 2H10.4C12.1132 2 13.2777 2.00156 14.1779 2.0751C15.0548 2.14674 15.5032 2.27659 15.816 2.43597C16.5686 2.81947 17.1805 3.43139 17.564 4.184C17.7234 4.4968 17.8533 4.9452 17.9249 5.8221C17.9984 6.7223 18 7.8868 18 9.6V10.4C18 12.1132 17.9984 13.2777 17.9249 14.1779C17.8533 15.0548 17.7234 15.5032 17.564 15.816C17.1805 16.5686 16.5686 17.1805 15.816 17.564C15.5032 17.7234 15.0548 17.8533 14.1779 17.9249C13.2777 17.9984 12.1132 18 10.4 18H9.6C7.8868 18 6.7223 17.9984 5.8221 17.9249C4.9452 17.8533 4.4968 17.7234 4.184 17.564C3.43139 17.1805 2.81947 16.5686 2.43597 15.816C2.27659 15.5032 2.14674 15.0548 2.0751 14.1779C2.00156 13.2777 2 12.1132 2 10.4V9.6C2 7.8868 2.00156 6.7223 2.0751 5.8221C2.14674 4.9452 2.27659 4.4968 2.43597 4.184C2.81947 3.43139 3.43139 2.81947 4.184 2.43597C4.4968 2.27659 4.9452 2.14674 5.8221 2.0751C6.7223 2.00156 7.8868 2 9.6 2Z" fill="white"/>
</svg>
