<svg width="139" height="35" viewBox="0 0 139 35" fill="none" xmlns="http://www.w3.org/2000/svg">
<path d="M13.2605 34.456C8.14086 34.456 3.72068 32.6808 0 29.13L4.06299 23.9467C7.12882 26.6415 10.2393 27.9888 13.3945 27.9888C14.7934 27.9888 15.8948 27.7034 16.6984 27.1328C17.5021 26.5622 17.9039 25.7696 17.9039 24.7551C17.9039 23.8041 17.4872 23.0432 16.6538 22.4726C15.8204 21.8702 14.1386 21.2203 11.6085 20.5229C9.82262 20.0474 8.37897 19.5877 7.27767 19.1438C6.17634 18.6683 5.11965 18.0501 4.10764 17.2893C3.12538 16.5284 2.39611 15.5774 1.91988 14.4361C1.4734 13.2631 1.25016 11.8682 1.25016 10.2514C1.25016 7.23969 2.26216 4.81448 4.28624 2.97574C6.34006 1.13701 8.9743 0.217651 12.189 0.217651C16.624 0.217651 20.4935 1.62841 23.7975 4.44989L20.2257 9.96607C17.2789 7.77862 14.5702 6.6849 12.0997 6.6849C10.8198 6.6849 9.82262 6.97022 9.10824 7.54085C8.42362 8.07978 8.08134 8.79308 8.08134 9.68075C8.08134 10.7586 8.51292 11.567 9.37614 12.106C10.2393 12.6449 12.055 13.2948 14.8232 14.0556C18.2165 15.0067 20.7168 16.2273 22.3241 17.7172C23.9315 19.2072 24.7351 21.3471 24.7351 24.1369C24.7351 27.3706 23.6784 29.9066 21.5651 31.7455C19.4815 33.5525 16.7133 34.456 13.2605 34.456ZM37.326 33.9805V7.44575H27.8159V0.693187H53.7119V7.44575H44.2018V33.9805H37.326ZM52.3095 33.9805L65.704 0.455418H72.0441L85.4385 33.9805H78.2502L69.2185 11.1703L59.3193 33.9805H52.3095ZM93.5287 33.9805V7.44575H84.0187V0.693187H109.915V7.44575H100.405V33.9805H93.5287ZM115.202 33.9805V0.693187H138.777V7.20798H122.034V13.9605H136.768V20.4753H122.034V27.4657H139V33.9805H115.202Z" fill="#212121"/>
</svg>
