<svg width="32" height="32" viewBox="0 0 32 32" fill="none" xmlns="http://www.w3.org/2000/svg">
<rect width="32" height="32" rx="8" fill="#19BD2C"/>
<path d="M19.7216 19.9646L20.1888 19.5001L19.104 18.4092L18.637 18.8737L19.7216 19.9646ZM21.7575 19.3056L23.7168 20.3707L24.4515 19.0192L22.4922 17.9541L21.7575 19.3056ZM24.094 22.4877L22.6371 23.9363L23.7218 25.0272L25.1787 23.5786L24.094 22.4877ZM21.7494 24.4028C20.2624 24.5413 16.4153 24.4178 12.25 20.2762L11.1654 21.3671C15.7107 25.8866 20.0369 26.1073 21.8921 25.9344L21.7494 24.4028ZM12.25 20.2762C8.27968 16.3284 7.62199 13.0079 7.54012 11.5674L6.00425 11.6547C6.10728 13.4677 6.92166 17.1475 11.1654 21.3671L12.25 20.2762ZM13.6605 13.9379L13.9547 13.6454L12.87 12.5545L12.5759 12.847L13.6605 13.9379ZM14.1888 9.91724L12.8956 8.18977L11.6641 9.1117L12.9573 10.8392L14.1888 9.91724ZM8.54615 7.81378L6.93642 9.41437L8.0211 10.5052L9.63083 8.90466L8.54615 7.81378ZM13.1182 13.3924C12.5759 12.847 12.5751 12.8477 12.5744 12.8485C12.5742 12.8487 12.5734 12.8495 12.5729 12.85C12.5719 12.851 12.5709 12.852 12.5698 12.8531C12.5678 12.8552 12.5656 12.8574 12.5634 12.8597C12.559 12.8643 12.5543 12.8693 12.5493 12.8746C12.5394 12.8854 12.5286 12.8977 12.5169 12.9115C12.4937 12.9393 12.4673 12.9735 12.4396 13.0143C12.3841 13.0963 12.3236 13.2046 12.2723 13.3408C12.1676 13.6188 12.1114 13.9852 12.1818 14.439C12.3195 15.3264 12.9306 16.4986 14.4962 18.0552L15.5808 16.9643C14.1158 15.5076 13.7668 14.6211 13.702 14.2032C13.6711 14.0043 13.7031 13.9064 13.7119 13.8832C13.7172 13.8689 13.7198 13.8674 13.7132 13.8772C13.71 13.882 13.7045 13.8895 13.696 13.8996C13.6918 13.9046 13.6868 13.9104 13.6809 13.9167C13.678 13.9199 13.6749 13.9233 13.6714 13.9268C13.6698 13.9286 13.668 13.9304 13.6662 13.9322C13.6652 13.9331 13.6643 13.9341 13.6634 13.935C13.663 13.9355 13.6623 13.9362 13.662 13.9364C13.6612 13.9372 13.6605 13.9379 13.1182 13.3924ZM14.4962 18.0552C16.0622 19.6123 17.2399 20.2183 18.1287 20.3547C18.5829 20.4244 18.9492 20.3688 19.227 20.2653C19.3632 20.2145 19.4717 20.1547 19.5537 20.0998C19.5948 20.0723 19.629 20.0461 19.6568 20.0231C19.6708 20.0116 19.6831 20.0008 19.6938 19.991C19.6993 19.986 19.7043 19.9814 19.7089 19.977C19.7113 19.9748 19.7134 19.9726 19.7156 19.9706C19.7166 19.9695 19.7176 19.9685 19.7187 19.9675C19.7192 19.967 19.72 19.9662 19.7202 19.966C19.7209 19.9653 19.7216 19.9646 19.1793 19.4191C18.637 18.8737 18.6377 18.873 18.6384 18.8723C18.6386 18.8721 18.6393 18.8714 18.6399 18.8708C18.6408 18.8699 18.6417 18.869 18.6426 18.8681C18.6446 18.8663 18.6463 18.8646 18.6481 18.8628C18.6517 18.8595 18.655 18.8564 18.6582 18.8534C18.6646 18.8477 18.6703 18.8426 18.6754 18.8385C18.6855 18.8301 18.693 18.8248 18.6976 18.8216C18.7071 18.8153 18.7052 18.8181 18.69 18.8238C18.6649 18.8331 18.5643 18.8652 18.362 18.8341C17.9382 18.7692 17.0454 18.4205 15.5808 16.9643L14.4962 18.0552ZM12.8956 8.18977C11.8502 6.79337 9.79461 6.57241 8.54615 7.81378L9.63083 8.90466C10.1761 8.36247 11.1445 8.41765 11.6641 9.1117L12.8956 8.18977ZM7.54012 11.5674C7.51995 11.2125 7.68275 10.8417 8.0211 10.5052L6.93642 9.41437C6.38537 9.9623 5.95215 10.7379 6.00425 11.6547L7.54012 11.5674ZM22.6371 23.9363C22.3553 24.2166 22.0532 24.3744 21.7494 24.4028L21.8921 25.9344C22.6455 25.8642 23.2628 25.4836 23.7218 25.0272L22.6371 23.9363ZM13.9547 13.6454C14.9643 12.6414 15.0394 11.0535 14.1888 9.91724L12.9573 10.8392C13.3711 11.3919 13.3096 12.1175 12.87 12.5545L13.9547 13.6454ZM23.7168 20.3707C24.5555 20.8267 24.6862 21.8988 24.094 22.4877L25.1787 23.5786C26.5532 22.2118 26.1294 19.9313 24.4515 19.0192L23.7168 20.3707ZM20.1888 19.5001C20.5826 19.1086 21.2165 19.0115 21.7575 19.3056L22.4922 17.9541C21.3809 17.3499 20.0017 17.5168 19.104 18.4092L20.1888 19.5001Z" fill="white"/>
</svg>
