<svg width="20" height="19" viewBox="0 0 20 19" fill="none" xmlns="http://www.w3.org/2000/svg">
<path d="M13.7216 12.9646L14.1888 12.5001L13.104 11.4092L12.637 11.8737L13.7216 12.9646ZM15.7575 12.3056L17.7168 13.3707L18.4515 12.0192L16.4922 10.9541L15.7575 12.3056ZM18.094 15.4877L16.6371 16.9363L17.7218 18.0272L19.1787 16.5786L18.094 15.4877ZM15.7494 17.4028C14.2624 17.5413 10.4153 17.4178 6.25 13.2762L5.1654 14.3671C9.7107 18.8866 14.0369 19.1073 15.8921 18.9344L15.7494 17.4028ZM6.25 13.2762C2.27968 9.3284 1.62199 6.0079 1.54012 4.5674L0.00425341 4.6547C0.107283 6.4677 0.921663 10.1475 5.1654 14.3671L6.25 13.2762ZM7.6605 6.9379L7.9547 6.6454L6.87 5.5545L6.5759 5.847L7.6605 6.9379ZM8.1888 2.91724L6.8956 1.18977L5.6641 2.1117L6.9573 3.8392L8.1888 2.91724ZM2.54615 0.813782L0.936423 2.41437L2.0211 3.5052L3.63083 1.90466L2.54615 0.813782ZM7.1182 6.3924C6.5759 5.847 6.5744 5.8485 6.5744 5.8485L6.5698 5.8531C6.5678 5.8552 6.5656 5.8574 6.5634 5.8597C6.559 5.8643 6.5543 5.8693 6.5493 5.8746C6.5394 5.8854 6.5286 5.8977 6.5169 5.9115C6.4937 5.9393 6.4673 5.9735 6.4396 6.0143C6.3841 6.0963 6.3236 6.2046 6.2723 6.3408C6.1676 6.6188 6.1114 6.9852 6.1818 7.439C6.3195 8.3264 6.9306 9.4986 8.4962 11.0552L9.5808 9.9643C8.1158 8.5076 7.7668 7.6211 7.702 7.2032C7.6711 7.0043 7.7031 6.9064 7.7119 6.8832C7.7172 6.8689 7.7198 6.8674 7.7132 6.8772C7.71 6.882 7.7045 6.8895 7.696 6.8996C7.6918 6.9046 7.6868 6.9104 7.6809 6.9167C7.678 6.9199 7.6749 6.9233 7.6714 6.9268C7.6698 6.9286 7.668 6.9304 7.6662 6.9322L7.662 6.9364C7.662 6.9364 7.6605 6.9379 7.1182 6.3924ZM8.4962 11.0552C10.0622 12.6123 11.2399 13.2183 12.1287 13.3547C12.5829 13.4244 12.9492 13.3688 13.227 13.2653C13.3632 13.2145 13.4717 13.1547 13.5537 13.0998C13.5948 13.0723 13.629 13.0461 13.6568 13.0231C13.6708 13.0116 13.6831 13.0008 13.6938 12.991C13.6993 12.986 13.7043 12.9814 13.7089 12.977C13.7113 12.9748 13.7134 12.9726 13.7156 12.9706L13.7202 12.966C13.7202 12.966 13.7216 12.9646 13.1793 12.4191C12.637 11.8737 12.6384 11.8723 12.6384 11.8723L12.6426 11.8681C12.6446 11.8663 12.6463 11.8646 12.6481 11.8628C12.6517 11.8595 12.655 11.8564 12.6582 11.8534C12.6646 11.8477 12.6703 11.8426 12.6754 11.8385C12.6855 11.8301 12.693 11.8248 12.6976 11.8216C12.7071 11.8153 12.7052 11.8181 12.69 11.8238C12.6649 11.8331 12.5643 11.8652 12.362 11.8341C11.9382 11.7692 11.0454 11.4205 9.5808 9.9643L8.4962 11.0552ZM6.8956 1.18977C5.8502 -0.206628 3.79461 -0.427588 2.54615 0.813782L3.63083 1.90466C4.1761 1.36247 5.1445 1.41765 5.6641 2.1117L6.8956 1.18977ZM1.54012 4.5674C1.51995 4.2125 1.68275 3.8417 2.0211 3.5052L0.936423 2.41437C0.385373 2.9623 -0.0478466 3.7379 0.00425341 4.6547L1.54012 4.5674ZM16.6371 16.9363C16.3553 17.2166 16.0532 17.3744 15.7494 17.4028L15.8921 18.9344C16.6455 18.8642 17.2628 18.4836 17.7218 18.0272L16.6371 16.9363ZM7.9547 6.6454C8.9643 5.6414 9.0394 4.0535 8.1888 2.91724L6.9573 3.8392C7.3711 4.3919 7.3096 5.1175 6.87 5.5545L7.9547 6.6454ZM17.7168 13.3707C18.5555 13.8267 18.6862 14.8988 18.094 15.4877L19.1787 16.5786C20.5532 15.2118 20.1294 12.9313 18.4515 12.0192L17.7168 13.3707ZM14.1888 12.5001C14.5826 12.1086 15.2165 12.0115 15.7575 12.3056L16.4922 10.9541C15.3809 10.3499 14.0017 10.5168 13.104 11.4092L14.1888 12.5001Z" fill="white"/>
</svg>
