<svg width="20" height="18" viewBox="0 0 20 18" fill="none" xmlns="http://www.w3.org/2000/svg">
<path fill-rule="evenodd" clip-rule="evenodd" d="M17.9274 0.119426C19.0099 -0.336354 20.1703 0.578976 19.9792 1.73784L17.7216 15.4257C17.5039 16.7455 16.0544 17.5028 14.8436 16.8451C13.8304 16.2948 12.3272 15.4477 10.9724 14.5625C10.2959 14.1204 8.2244 12.7029 8.479 11.6939C8.6967 10.8311 12.1791 7.5895 14.1691 5.6617C14.9508 4.9045 14.5948 4.467 13.6716 5.1642C11.3815 6.8938 7.7048 9.5235 6.489 10.2636C5.4162 10.9165 4.8561 11.0279 4.188 10.9165C2.96804 10.7132 1.83696 10.3984 0.91352 10.0156C-0.334581 9.4982 -0.27378 7.7831 0.91267 7.2836L17.9274 0.119426Z" fill="white"/>
</svg>
