<svg width="32" height="32" viewBox="0 0 32 32" fill="none" xmlns="http://www.w3.org/2000/svg">
<rect width="32" height="32" rx="8" fill="#0AA5E6"/>
<path fill-rule="evenodd" clip-rule="evenodd" d="M23.9274 7.11943C25.0099 6.66365 26.1703 7.57898 25.9792 8.73784L23.7216 22.4257C23.5039 23.7455 22.0544 24.5028 20.8436 23.8451C19.8304 23.2948 18.3272 22.4477 16.9724 21.5625C16.2959 21.1204 14.2244 19.7029 14.479 18.6939C14.6967 17.8311 18.1791 14.5895 20.1691 12.6617C20.9508 11.9045 20.5948 11.467 19.6716 12.1642C17.3815 13.8938 13.7048 16.5235 12.489 17.2636C11.4162 17.9165 10.8561 18.0279 10.188 17.9165C8.96804 17.7132 7.83696 17.3984 6.91352 17.0156C5.66542 16.4982 5.72622 14.7831 6.91267 14.2836L23.9274 7.11943Z" fill="white"/>
</svg>
