<svg width="32" height="32" viewBox="0 0 32 32" fill="none" xmlns="http://www.w3.org/2000/svg">
<rect width="32" height="32" rx="8" fill="#0077FF"/>
<path d="M18.1106 15.5954C17.7449 15.4579 17.7449 14.9328 17.7222 14.5671C17.6308 13.2644 18.0879 11.2757 17.5394 10.4302C17.151 9.92695 15.2764 9.97303 14.1339 10.0418C13.8135 10.0879 13.4251 10.1559 13.1509 10.2934C12.8766 10.4309 12.6023 10.6591 12.6023 10.8646C12.6023 11.1616 13.2884 11.1162 13.5392 11.5046C13.8135 11.9164 13.8135 12.8073 13.8135 13.5387C13.8135 14.3842 13.676 15.5048 13.3337 15.5501C12.8078 15.5728 12.5109 15.0469 12.2366 14.6585C11.688 13.9044 11.1394 12.9667 10.7277 12.0525C10.5221 11.5726 10.4073 11.0468 10.1103 10.8412C9.6532 10.5209 8.83036 10.4982 8.03018 10.5209C7.29876 10.5435 6.24698 10.4521 6.04145 10.8866C5.88127 11.3664 6.22431 11.8235 6.40716 12.2126C7.34411 14.2467 8.34981 16.0299 9.58445 17.721C10.7277 19.2979 11.8014 20.5552 13.9042 21.2179C14.4989 21.4007 17.1042 21.9266 17.6301 21.2179C17.8129 20.9436 17.7676 20.3263 17.859 19.8691C17.9504 19.412 18.0645 18.9549 18.499 18.9322C18.8647 18.9095 19.0702 19.2291 19.2992 19.4581C19.5508 19.7097 19.7563 19.9152 19.9392 20.1441C20.3736 20.5786 20.8308 21.1725 21.3793 21.4015C22.1334 21.7218 23.2993 21.6304 24.3964 21.5843C25.288 21.5616 25.928 21.3788 25.9968 20.8529C26.0429 20.4411 25.585 19.8472 25.3107 19.5042C24.6246 18.6586 24.305 18.407 23.5275 17.6295C23.1845 17.2865 22.75 16.9208 22.75 16.5097C22.7273 16.2581 22.9329 16.0299 23.1157 15.7783C23.9159 14.5897 24.7161 13.7442 25.4475 12.5096C25.653 12.1439 26.1335 11.2984 25.9507 10.8866C25.7452 10.4294 24.602 10.5662 23.8932 10.5662C22.9789 10.5662 21.7904 10.4975 21.5614 10.6803C21.127 10.9773 20.9441 11.4578 20.7386 11.9149C20.2815 12.9667 19.6641 14.0405 19.0241 14.8406C18.7952 15.1149 18.3615 15.6861 18.1099 15.5947L18.1106 15.5954Z" fill="white"/>
</svg>
