<svg width="20" height="12" viewBox="0 0 20 12" fill="none" xmlns="http://www.w3.org/2000/svg">
<path d="M12.1106 5.59539C11.7449 5.45789 11.7449 4.93279 11.7222 4.56709C11.6308 3.26439 12.0879 1.27569 11.5394 0.430192C11.151 -0.0730577 9.2764 -0.0269777 8.1339 0.0417923C7.8135 0.0878923 7.4251 0.155893 7.1509 0.293393C6.8766 0.430893 6.6023 0.659093 6.6023 0.864593C6.6023 1.16159 7.2884 1.11619 7.5392 1.50459C7.8135 1.91639 7.8135 2.80729 7.8135 3.53869C7.8135 4.38419 7.676 5.50479 7.3337 5.55009C6.8078 5.57279 6.5109 5.04689 6.2366 4.65849C5.688 3.90439 5.1394 2.96669 4.7277 2.05249C4.5221 1.57259 4.4073 1.04679 4.1103 0.841193C3.6532 0.520893 2.83036 0.498193 2.03018 0.520893C1.29876 0.543493 0.246984 0.452092 0.0414538 0.886592C-0.118726 1.36639 0.224314 1.82349 0.407164 2.21259C1.34411 4.24669 2.34981 6.02989 3.58445 7.72099C4.7277 9.29789 5.8014 10.5552 7.9042 11.2179C8.4989 11.4007 11.1042 11.9266 11.6301 11.2179C11.8129 10.9436 11.7676 10.3263 11.859 9.86909C11.9504 9.41199 12.0645 8.95489 12.499 8.93219C12.8647 8.90949 13.0702 9.22909 13.2992 9.45809C13.5508 9.70969 13.7563 9.91519 13.9392 10.1441C14.3736 10.5786 14.8308 11.1725 15.3793 11.4015C16.1334 11.7218 17.2993 11.6304 18.3964 11.5843C19.288 11.5616 19.928 11.3788 19.9968 10.8529C20.0429 10.4411 19.585 9.84719 19.3107 9.50419C18.6246 8.65859 18.305 8.40699 17.5275 7.62949C17.1845 7.28649 16.75 6.92079 16.75 6.50969C16.7273 6.25809 16.9329 6.02989 17.1157 5.77829C17.9159 4.58969 18.7161 3.74419 19.4475 2.50959C19.653 2.14389 20.1335 1.29839 19.9507 0.886592C19.7452 0.429392 18.602 0.566193 17.8932 0.566193C16.9789 0.566193 15.7904 0.497492 15.5614 0.680292C15.127 0.977292 14.9441 1.45779 14.7386 1.91489C14.2815 2.96669 13.6641 4.04049 13.0241 4.84059C12.7952 5.11489 12.3622 5.68679 12.1106 5.59539Z" fill="white"/>
</svg>
