<svg width="32" height="32" viewBox="0 0 32 32" fill="none" xmlns="http://www.w3.org/2000/svg">
<rect width="32" height="32" rx="8" fill="#1BCC3A"/>
<g clip-path="url(#clip0_615_164)">
<path fill-rule="evenodd" clip-rule="evenodd" d="M8.3256 15.7674C8.3256 11.4005 11.8657 7.86046 16.2326 7.86046C20.5994 7.86046 24.1395 11.4005 24.1395 15.7674C24.1395 20.1343 20.5994 23.6744 16.2326 23.6744C14.677 23.6744 13.2291 23.2262 12.0074 22.4522C11.7801 22.3082 11.5015 22.2697 11.2436 22.3466L8.56529 23.146L9.5737 20.7863C9.69289 20.5074 9.66864 20.188 9.50872 19.9303C8.75879 18.7219 8.3256 17.2966 8.3256 15.7674ZM16.2326 6C10.8382 6 6.46514 10.373 6.46514 15.7674C6.46514 17.4773 6.90527 19.0868 7.67875 20.4862L6.07486 24.2391C5.93307 24.5709 5.99592 24.9547 6.23611 25.2239C6.47631 25.4932 6.85053 25.5993 7.19627 25.496L11.3818 24.247C12.8116 25.0665 14.4686 25.5349 16.2326 25.5349C21.627 25.5349 26 21.1619 26 15.7674C26 10.373 21.627 6 16.2326 6ZM18.3651 17.7976L17.1426 18.6587C16.57 18.3326 15.937 17.8773 15.302 17.2423C14.642 16.5822 14.1526 15.9007 13.7917 15.2756L14.5687 14.6162C14.902 14.3332 14.9933 13.8561 14.7879 13.47L13.798 11.6096C13.6647 11.359 13.4243 11.1831 13.1453 11.1317C12.8662 11.0803 12.5789 11.1591 12.3651 11.3457L12.0716 11.6018C11.3658 12.2178 10.9484 13.23 11.2943 14.255C11.653 15.3175 12.4184 16.9898 13.9865 18.5579C15.6736 20.2449 17.3873 20.9093 18.3894 21.1673C19.1968 21.3752 19.9609 21.0966 20.4994 20.6579L21.0496 20.2095C21.2849 20.0178 21.4119 19.7232 21.3898 19.4204C21.3675 19.1176 21.199 18.8446 20.9381 18.6892L19.3769 17.759C19.0616 17.5712 18.6653 17.5862 18.3651 17.7976Z" fill="white"/>
</g>
<defs>
<clipPath id="clip0_615_164">
<rect width="20" height="20" fill="white" transform="translate(6 6)"/>
</clipPath>
</defs>
</svg>
