<svg width="20" height="20" viewBox="0 0 20 20" fill="none" xmlns="http://www.w3.org/2000/svg">
<mask id="mask0_504_17" style="mask-type:luminance" maskUnits="userSpaceOnUse" x="0" y="0" width="20" height="20">
<path d="M20 0H0V20H20V0Z" fill="white"/>
</mask>
<g mask="url(#mask0_504_17)">
<path fill-rule="evenodd" clip-rule="evenodd" d="M2.3256 9.7674C2.3256 5.4005 5.8657 1.86046 10.2326 1.86046C14.5994 1.86046 18.1395 5.4005 18.1395 9.7674C18.1395 14.1343 14.5994 17.6744 10.2326 17.6744C8.677 17.6744 7.2291 17.2262 6.0074 16.4522C5.7801 16.3082 5.5015 16.2697 5.2436 16.3466L2.56529 17.146L3.5737 14.7863C3.69289 14.5074 3.66864 14.188 3.50872 13.9303C2.75879 12.7219 2.3256 11.2966 2.3256 9.7674ZM10.2326 0C4.8382 0 0.465138 4.373 0.465138 9.7674C0.465138 11.4773 0.905268 13.0868 1.67875 14.4862L0.0748584 18.2391C-0.0669316 18.5709 -0.00408144 18.9547 0.236109 19.2239C0.476309 19.4932 0.850528 19.5993 1.19627 19.496L5.3818 18.247C6.8116 19.0665 8.4686 19.5349 10.2326 19.5349C15.627 19.5349 20 15.1619 20 9.7674C20 4.373 15.627 0 10.2326 0ZM12.3651 11.7976L11.1426 12.6587C10.57 12.3326 9.937 11.8773 9.302 11.2423C8.642 10.5822 8.1526 9.9007 7.7917 9.2756L8.5687 8.6162C8.902 8.3332 8.9933 7.8561 8.7879 7.47L7.798 5.6096C7.6647 5.359 7.4243 5.1831 7.1453 5.1317C6.8662 5.0803 6.5789 5.1591 6.3651 5.3457L6.0716 5.6018C5.3658 6.2178 4.9484 7.23 5.2943 8.255C5.653 9.3175 6.4184 10.9898 7.9865 12.5579C9.6736 14.2449 11.3873 14.9093 12.3894 15.1673C13.1968 15.3752 13.9609 15.0966 14.4994 14.6579L15.0496 14.2095C15.2849 14.0178 15.4119 13.7232 15.3898 13.4204C15.3675 13.1176 15.199 12.8446 14.9381 12.6892L13.3769 11.759C13.0616 11.5712 12.6653 11.5862 12.3651 11.7976Z" fill="white"/>
</g>
</svg>
